<svg width="107" height="31" viewBox="0 0 107 31" fill="none" xmlns="http://www.w3.org/2000/svg">
<path fill-rule="evenodd" clip-rule="evenodd" d="M3.90226 0.245324H1.51771L1.5175 0.245117C0.563678 0.245117 0 0.815634 0 1.78103V19.4662C0 26.1366 4.55251 30.4811 10.7526 30.4811C16.9093 30.4811 21.6354 26.0928 21.6354 19.6857C21.6354 11.8745 14.9584 8.75886 10.8828 8.75886H10.2324C9.40859 8.75886 8.97496 9.06592 8.71487 9.94349L8.06442 12.3134C7.76104 13.4102 8.32472 13.9807 9.23506 13.9807H10.2324C13.701 13.9807 16.129 16.5258 16.129 19.6855C16.129 22.8451 13.8745 25.171 10.796 25.171C7.80453 25.171 5.41977 23.0646 5.41977 19.2468V1.78124C5.41977 0.81584 4.85609 0.245324 3.90226 0.245324ZM34.108 8.06108C27.9512 8.06108 23.2254 12.4494 23.2254 18.8563H23.225C23.225 26.6677 29.9019 29.7833 33.9775 29.7833H34.628C35.4518 29.7833 35.8854 29.4762 36.1455 28.5984L36.7959 26.2288C37.0995 25.1317 36.5358 24.5612 35.6253 24.5612H34.628C31.1596 24.5612 28.7315 22.0159 28.7315 18.8565C28.7315 15.697 30.9862 13.3712 34.0645 13.3712C37.0562 13.3712 39.4408 15.4774 39.4408 19.2954V28.2476C39.4408 29.213 40.0045 29.7835 40.9583 29.7835H43.3431C44.2969 29.7835 44.8605 29.213 44.8605 28.2476V19.0759C44.8605 12.4054 40.308 8.06108 34.108 8.06108ZM47.4572 21.7088V5.60375C47.4572 4.63815 48.0209 4.06763 48.9747 4.06763H51.3594C52.3133 4.06763 52.8769 4.63815 52.8769 5.60375V8.58776H57.2994C58.2532 8.58776 58.8169 9.15827 58.8169 10.1237V12.2739C58.8169 13.2393 58.2532 13.8098 57.2994 13.8098H52.8769V20.9629C52.8769 23.3326 53.9608 24.5612 56.3456 24.5612H57.733C58.8169 24.5612 59.294 25.1757 58.9904 26.2725L58.34 28.4668C58.0799 29.3444 57.5162 29.7833 56.649 29.7833H55.4783C50.1453 29.7833 47.4572 26.5798 47.4572 21.7088ZM95.2941 8.27622C100.604 8.32788 105.177 12.3779 105.933 17.6946C106.008 18.2174 106.045 18.7464 106.045 19.265C106.045 25.3277 101.172 30.258 95.1838 30.258C91.6723 30.258 88.2486 28.4375 86.2458 25.5074C85.2965 24.1189 84.6759 22.5154 84.4492 20.8706C84.2859 19.6659 84.3288 18.4509 84.5799 17.2524C84.3451 17.521 84.1308 17.8434 83.9389 18.1533C83.3374 19.1248 82.9153 20.1841 82.4931 21.2437C82.2104 21.9531 81.9277 22.6626 81.591 23.3461C80.6315 25.2967 79.5229 26.7679 78.2 27.8424C75.8746 29.731 72.7571 30.5597 69.6499 30.1133C66.6733 29.6877 64.1417 28.173 62.5248 25.8443C59.9054 22.0814 59.932 16.6263 62.586 12.8759C64.6256 9.99542 67.9268 8.27415 71.4158 8.27415C71.569 8.27415 71.7241 8.27829 71.8793 8.28449C72.4427 8.30928 73.0103 8.37954 73.5615 8.49525C76.8178 9.16681 79.6373 11.3633 81.1439 14.3885C82.0871 13.3553 83.0957 12.4626 84.1451 11.7311C86.1315 10.3467 88.416 9.34452 90.9374 8.75354C92.0296 8.49732 93.1402 8.33408 94.2386 8.26795H94.2692L95.2941 8.27622ZM75.2928 23.1787C75.7603 22.7055 76.1217 22.1579 76.3687 21.5525C77.2588 19.358 76.826 16.9982 75.2397 15.3948C74.2169 14.3595 72.8613 13.7913 71.4199 13.7913C70.6564 13.7913 69.8908 13.9483 69.1497 14.2583C67.9431 14.7604 66.9652 15.7502 66.465 16.9735C65.5729 19.17 66.0036 21.5339 67.594 23.1415C68.6148 24.1726 69.9704 24.7429 71.4097 24.7429C72.1753 24.7429 72.9429 24.5838 73.6902 24.2697C74.2883 24.0197 74.8273 23.6519 75.2928 23.1787ZM89.7716 19.265C89.7716 22.286 92.1991 24.7429 95.1838 24.7429C95.9739 24.7429 96.7375 24.5714 97.4561 24.2366C98.1707 23.9019 98.7933 23.4204 99.3078 22.8088C100.137 21.819 100.594 20.5606 100.594 19.265C100.594 16.2895 98.2911 13.8843 95.3512 13.7913C95.3002 13.7892 95.2492 13.7892 95.1982 13.7892H95.1981H95.19C92.9932 13.7892 91.0313 15.1137 90.184 17.1636C90.0432 17.5086 89.939 17.864 89.8717 18.2153C89.8043 18.5501 89.7716 18.9034 89.7716 19.265Z" fill="#121A54"/>
</svg>
